<svg width="90" height="24" viewBox="0 0 90 24" fill="none" xmlns="http://www.w3.org/2000/svg">
<path d="M74.2446 5.42651C69.1258 5.42651 64.9719 9.58036 64.9719 14.6992C64.9719 19.8181 69.1258 23.972 74.2446 23.972C79.3635 23.972 83.5174 19.8181 83.5174 14.6992C83.5174 9.58036 79.3635 5.42651 74.2446 5.42651ZM74.2446 20.2936C71.2377 20.2936 68.7901 17.7901 68.7901 14.6992C68.7901 11.6083 71.2237 9.10483 74.2446 9.10483C77.2656 9.10483 79.6992 11.6083 79.6992 14.6992C79.6852 17.7901 77.2516 20.2936 74.2446 20.2936Z" fill="#151D51"/>
<path d="M62.6784 5.7063H58.8602V23.7063H62.6784V5.7063Z" fill="#151D51"/>
<path d="M9.40556 9.11882C11.5594 9.11882 13.2517 10.2657 13.993 12.2517H18.0489C16.972 8.0419 13.7832 5.42651 9.48948 5.42651C4.25871 5.42651 0.286682 9.58036 0.286682 14.7132C0.286682 19.8461 4.25871 23.9859 9.48948 23.9859C13.7832 23.9859 16.972 21.3706 18.0489 17.1608H13.993C13.2517 19.1468 11.5454 20.2936 9.40556 20.2936C6.28668 20.2936 4.11885 17.7901 4.11885 14.6992C4.11885 11.6083 6.28668 9.11882 9.40556 9.11882Z" fill="#151D51"/>
<path d="M49.965 8.39167V5.70636H46.1608V23.7203H49.965V15.9022C49.965 11.2588 52.5104 8.6574 56.6782 9.53852V5.70636C54.0768 4.8672 51.1538 6.3637 49.965 8.39167Z" fill="#151D51"/>
<path d="M24.0629 19.1608V0H20.2447V19.5245C20.2447 21.5524 21.1258 23.7063 24.2307 23.7063H25.7412V20.6573H25.1818C24.4405 20.5874 24.0629 20.2378 24.0629 19.1608Z" fill="#151D51"/>
<path d="M42.2727 19.1608V12.0139C42.2727 8.54539 40.3286 5.42651 34.972 5.42651C30.7202 5.42651 27.937 8.46148 27.5734 11.4405H31.3636C31.7272 9.91602 32.972 8.67127 34.93 8.67127C37.2097 8.67127 38.4545 9.87407 38.4545 11.4405C38.4545 12.0419 38.1748 12.8111 36.902 12.8111L33.8531 12.8671C29.5734 12.8671 26.972 14.7412 26.972 18.3076C26.972 21.5804 29.3636 23.9999 33.2237 23.9999C35.5874 23.9999 37.4615 23.0489 38.8321 21.6223C39.3356 22.8111 40.4125 23.7202 42.4265 23.7202H43.6993V20.6713H43.3776C42.6503 20.5873 42.2727 20.2377 42.2727 19.1608ZM33.7692 20.7412C31.8111 20.7412 30.8741 19.5943 30.8741 18.4055C30.8741 16.4195 32.5104 15.8321 34.3426 15.8321L36.6223 15.7901C37.3076 15.7901 37.909 15.7062 38.4405 15.4685V15.944C38.4545 19.3426 36.0909 20.7412 33.7692 20.7412Z" fill="#151D51"/>
<path d="M57.3077 0.013916C57.2797 0.167762 57.2797 0.335594 57.2797 0.503426C57.2797 2.44748 58.8462 4.01391 60.7902 4.01391C62.7343 4.01391 64.3007 2.44748 64.3007 0.503426C64.3007 0.335594 64.2867 0.167762 64.2727 0.013916H57.3077Z" fill="#5CD6C0"/>
<path d="M89.6853 23.7205C89.7133 23.5666 89.7133 23.3988 89.7133 23.2309C89.7133 21.2869 88.1469 19.7205 86.2028 19.7205C84.2588 19.7205 82.6923 21.2869 82.6923 23.2309C82.6923 23.3988 82.7063 23.5666 82.7203 23.7205H89.6853Z" fill="#5CD6C0"/>
</svg>
