<svg width="16" height="16" viewBox="0 0 16 16" fill="none" xmlns="http://www.w3.org/2000/svg">
<path fill-rule="evenodd" clip-rule="evenodd" d="M14.9773 12.0682C15.5045 12.0682 15.9318 12.4956 15.9318 13.0227L15.9318 15.0227C15.9318 15.5499 15.5045 15.9773 14.9773 15.9773L0.977278 15.9773C0.450097 15.9773 0.022733 15.5499 0.022733 15.0227L0.0227331 13.0227C0.0227331 12.4956 0.450098 12.0682 0.977278 12.0682C1.50446 12.0682 1.93182 12.4956 1.93182 13.0227L1.93182 14.0682L14.0227 14.0682L14.0227 13.0227C14.0227 12.4956 14.4501 12.0682 14.9773 12.0682ZM12.28 7.57793C12.6706 7.96846 12.6706 8.60162 12.28 8.99215L8.68438 12.5878C8.29386 12.9783 7.6607 12.9783 7.27017 12.5878L3.67453 8.99215C3.284 8.60162 3.284 7.96846 3.67453 7.57793C4.06505 7.18741 4.69822 7.18741 5.08874 7.57793L6.97728 9.46647L6.97728 1.02273C6.97728 0.470443 7.42499 0.0227276 7.97728 0.0227276C8.52956 0.0227276 8.97728 0.470443 8.97728 1.02273L8.97728 9.46647L10.8658 7.57793C11.2563 7.18741 11.8895 7.18741 12.28 7.57793Z" fill="#151D51"/>
</svg>
