<svg width="24" height="24" viewBox="0 0 24 24" fill="none" xmlns="http://www.w3.org/2000/svg">
<path fill-rule="evenodd" clip-rule="evenodd" d="M22 12C22 17.5228 17.5228 22 12 22C9.59872 22 7.39512 21.1536 5.67124 19.7429L19.7429 5.67124C21.1536 7.39511 22 9.59872 22 12ZM4.25703 18.3287L18.3287 4.25703C16.6048 2.84636 14.4013 2 12 2C6.47715 2 2 6.47715 2 12C2 14.4013 2.84636 16.6048 4.25703 18.3287ZM24 12C24 18.6274 18.6274 24 12 24C5.37258 24 0 18.6274 0 12C0 5.37258 5.37258 0 12 0C18.6274 0 24 5.37258 24 12Z" fill="#5CD6C0"/>
</svg>
