<svg width="12" height="10" viewBox="0 0 12 10" fill="none" xmlns="http://www.w3.org/2000/svg">
<path fill-rule="evenodd" clip-rule="evenodd" d="M2.97972 2.18944C3.39551 0.872759 4.84299 0.187412 6.125 0.700217C7.25712 0.194092 8.57751 0.787316 8.95094 1.96986L9.5921 4.00022H10.25C10.8023 4.00022 11.25 4.44793 11.25 5.00022C11.25 5.5525 10.8023 6.00022 10.25 6.00022H1.75C1.19772 6.00022 0.75 5.5525 0.75 5.00022C0.75 4.44793 1.19772 4.00022 1.75 4.00022H2.40789L2.97972 2.18944ZM5.63875 8.45572C5.31248 8.93832 4.79511 9.25012 4.21268 9.25012C3.90591 9.25012 3.61719 9.16362 3.36494 9.01123C2.37923 8.41574 3.35911 7.25012 4.51073 7.25012H5.99982H5.99999H7.48931C8.6408 7.25012 9.62059 8.41555 8.63507 9.01111C8.38277 9.16358 8.09398 9.25012 7.78713 9.25012C7.2047 9.25012 6.68733 8.93832 6.36106 8.45572C6.27878 8.33402 6.14681 8.25012 5.99991 8.25012C5.853 8.25012 5.72103 8.33402 5.63875 8.45572Z" fill="#151D51"/>
</svg>
