<svg width="12" height="12" viewBox="0 0 12 12" fill="none" xmlns="http://www.w3.org/2000/svg">
<path fill-rule="evenodd" clip-rule="evenodd" d="M1.61334 6.01568C1.61642 3.84265 3.18781 2.04767 5.24999 1.70588L5.24999 1.46815C5.24999 1.07143 5.58568 0.750001 5.99999 0.750001C6.41431 0.750001 6.74999 1.07143 6.74999 1.46815L6.74999 1.71769C8.80008 2.09051 10.3549 3.89793 10.3514 6.062L10.3452 9.87265L10.3826 9.87285C10.8194 9.87565 11.1739 10.2328 11.1732 10.673C11.172 11.112 10.8165 11.4662 10.3801 11.4646L1.65953 11.4172C1.22276 11.4144 0.868241 11.0573 0.868969 10.6171C0.869666 10.1954 1.19478 9.85309 1.60706 9.82707L1.61334 6.01568Z" fill="white"/>
</svg>
