<svg width="12" height="12" viewBox="0 0 12 12" fill="none" xmlns="http://www.w3.org/2000/svg">
<path fill-rule="evenodd" clip-rule="evenodd" d="M1.61334 6.01571C1.61642 3.84268 3.18781 2.0477 5.24999 1.70591L5.24999 1.46812C5.24999 1.0714 5.58568 0.749971 5.99999 0.749971C6.41431 0.749971 6.74999 1.0714 6.74999 1.46812L6.74999 1.71772C8.80008 2.09054 10.3549 3.89796 10.3514 6.06203L10.3452 9.87262L10.3826 9.87282C10.8194 9.87562 11.1739 10.2327 11.1732 10.673C11.172 11.112 10.8165 11.4662 10.3801 11.4646L1.65953 11.4172C1.22276 11.4144 0.868241 11.0573 0.868969 10.6171C0.869666 10.1954 1.19478 9.85306 1.60706 9.82704L1.61334 6.01571Z" fill="white"/>
</svg>
