<svg width="59" height="38" viewBox="0 0 59 38" fill="none" xmlns="http://www.w3.org/2000/svg">
<path fill-rule="evenodd" clip-rule="evenodd" d="M18.2205 0.544161C18.2992 0.223708 18.3244 0.121318 18.3177 0.210513L58.8559 3.02568C58.4569 8.3153 57.0018 15.2154 55.4166 20.3063C53.5487 26.3048 51.1777 33.2631 48.9867 39.684L48.8559 40.0672C46.6569 46.5114 44.6714 52.3298 43.2888 56.7835C42.5724 59.091 42.1508 60.6117 41.9535 61.4595C41.924 61.5865 41.9075 61.6647 41.9005 61.6993C41.9117 61.6387 41.9447 61.4486 41.9785 61.1592C42.0124 60.8689 42.0928 60.1055 42.0734 59.0536C42.0588 58.2652 41.9836 55.8097 40.9005 52.8226L1.93891 66.9493C0.775927 63.7418 0.658351 60.9847 0.636828 59.8181C0.61044 58.3879 0.719183 57.1697 0.814585 56.3527C1.00529 54.7194 1.32535 53.197 1.58833 52.0668C2.13153 49.7324 2.90925 47.0708 3.70866 44.4958C5.26668 39.4772 7.41448 33.1838 9.50789 27.0496C9.59329 26.7994 9.67859 26.5495 9.76376 26.2999C11.9968 19.7558 14.1765 13.3496 15.8469 7.98509C17.2726 3.40629 18.0075 1.41067 18.2205 0.544161ZM41.8964 61.7202C41.8964 61.7202 41.8976 61.7135 41.9005 61.6993C41.898 61.7129 41.8964 61.7202 41.8964 61.7202Z" fill="#151D51"/>
</svg>
